<mxfile host="app.diagrams.net" modified="2022-02-01T21:00:21.316Z" agent="5.0 (Macintosh; Intel Mac OS X 10_15_7) AppleWebKit/537.36 (KHTML, like Gecko) Chrome/97.0.4692.99 Safari/537.36" etag="hQDRmcMfVPb3pXPs3KZN" version="16.4.5" type="github" pages="2">
  <diagram id="GasNId6ZC2yzFnBj1auX" name="Page-1">
    <mxGraphModel dx="1881" dy="542" grid="1" gridSize="10" guides="1" tooltips="1" connect="1" arrows="1" fold="1" page="1" pageScale="1" pageWidth="850" pageHeight="1100" math="0" shadow="0">
      <root>
        <mxCell id="0" />
        <mxCell id="1" parent="0" />
        <mxCell id="v6lO75dIVANxk5lYDWVY-19" style="edgeStyle=orthogonalEdgeStyle;rounded=0;jumpStyle=sharp;orthogonalLoop=1;jettySize=auto;html=1;strokeColor=default;" edge="1" parent="1" source="BK75BVM9T5MUrSvjTf32-1" target="BK75BVM9T5MUrSvjTf32-5">
          <mxGeometry relative="1" as="geometry">
            <Array as="points">
              <mxPoint x="190" y="140" />
              <mxPoint x="425" y="140" />
            </Array>
          </mxGeometry>
        </mxCell>
        <mxCell id="HXFbTqJXcmXf0OJaDm2r-9" style="edgeStyle=orthogonalEdgeStyle;rounded=0;jumpStyle=sharp;orthogonalLoop=1;jettySize=auto;html=1;entryX=0.5;entryY=0;entryDx=0;entryDy=0;strokeColor=default;" edge="1" parent="1" source="BK75BVM9T5MUrSvjTf32-1" target="BK75BVM9T5MUrSvjTf32-2">
          <mxGeometry relative="1" as="geometry">
            <Array as="points">
              <mxPoint x="190" y="140" />
              <mxPoint x="-20" y="140" />
            </Array>
          </mxGeometry>
        </mxCell>
        <mxCell id="BK75BVM9T5MUrSvjTf32-1" value="App" style="rounded=1;whiteSpace=wrap;html=1;" vertex="1" parent="1">
          <mxGeometry x="130" y="70" width="120" height="60" as="geometry" />
        </mxCell>
        <mxCell id="HXFbTqJXcmXf0OJaDm2r-10" style="edgeStyle=orthogonalEdgeStyle;rounded=0;jumpStyle=sharp;orthogonalLoop=1;jettySize=auto;html=1;entryX=0.5;entryY=0;entryDx=0;entryDy=0;strokeColor=default;" edge="1" parent="1" source="BK75BVM9T5MUrSvjTf32-2" target="HXFbTqJXcmXf0OJaDm2r-7">
          <mxGeometry relative="1" as="geometry">
            <Array as="points">
              <mxPoint x="-20" y="250" />
              <mxPoint x="-190" y="250" />
            </Array>
          </mxGeometry>
        </mxCell>
        <mxCell id="HXFbTqJXcmXf0OJaDm2r-11" style="edgeStyle=orthogonalEdgeStyle;rounded=0;jumpStyle=sharp;orthogonalLoop=1;jettySize=auto;html=1;entryX=0.5;entryY=0;entryDx=0;entryDy=0;strokeColor=default;" edge="1" parent="1" source="BK75BVM9T5MUrSvjTf32-2" target="HXFbTqJXcmXf0OJaDm2r-6">
          <mxGeometry relative="1" as="geometry" />
        </mxCell>
        <mxCell id="HXFbTqJXcmXf0OJaDm2r-12" style="edgeStyle=orthogonalEdgeStyle;rounded=0;jumpStyle=sharp;orthogonalLoop=1;jettySize=auto;html=1;entryX=0.435;entryY=-0.049;entryDx=0;entryDy=0;entryPerimeter=0;strokeColor=default;" edge="1" parent="1" source="BK75BVM9T5MUrSvjTf32-2" target="HXFbTqJXcmXf0OJaDm2r-5">
          <mxGeometry relative="1" as="geometry" />
        </mxCell>
        <mxCell id="HXFbTqJXcmXf0OJaDm2r-13" style="edgeStyle=orthogonalEdgeStyle;rounded=0;jumpStyle=sharp;orthogonalLoop=1;jettySize=auto;html=1;entryX=0.5;entryY=0;entryDx=0;entryDy=0;strokeColor=default;" edge="1" parent="1" source="BK75BVM9T5MUrSvjTf32-2" target="HXFbTqJXcmXf0OJaDm2r-4">
          <mxGeometry relative="1" as="geometry">
            <Array as="points">
              <mxPoint x="-20" y="250" />
              <mxPoint x="170" y="250" />
            </Array>
          </mxGeometry>
        </mxCell>
        <mxCell id="BK75BVM9T5MUrSvjTf32-2" value="Router" style="rounded=1;whiteSpace=wrap;html=1;" vertex="1" parent="1">
          <mxGeometry x="-80" y="170" width="120" height="60" as="geometry" />
        </mxCell>
        <mxCell id="v6lO75dIVANxk5lYDWVY-16" style="edgeStyle=orthogonalEdgeStyle;rounded=0;jumpStyle=sharp;orthogonalLoop=1;jettySize=auto;html=1;entryX=0.5;entryY=0;entryDx=0;entryDy=0;strokeColor=default;" edge="1" parent="1" source="BK75BVM9T5MUrSvjTf32-5" target="v6lO75dIVANxk5lYDWVY-13">
          <mxGeometry relative="1" as="geometry" />
        </mxCell>
        <mxCell id="v6lO75dIVANxk5lYDWVY-17" style="edgeStyle=orthogonalEdgeStyle;rounded=0;jumpStyle=sharp;orthogonalLoop=1;jettySize=auto;html=1;entryX=0.5;entryY=0;entryDx=0;entryDy=0;strokeColor=default;" edge="1" parent="1" source="BK75BVM9T5MUrSvjTf32-5" target="v6lO75dIVANxk5lYDWVY-12">
          <mxGeometry relative="1" as="geometry" />
        </mxCell>
        <mxCell id="BK75BVM9T5MUrSvjTf32-5" value="TopNav" style="rounded=1;whiteSpace=wrap;html=1;" vertex="1" parent="1">
          <mxGeometry x="365" y="180" width="120" height="60" as="geometry" />
        </mxCell>
        <mxCell id="v6lO75dIVANxk5lYDWVY-2" value="" style="endArrow=classic;startArrow=classic;html=1;rounded=0;entryX=0.5;entryY=0;entryDx=0;entryDy=0;strokeColor=none;" edge="1" parent="1" target="BK75BVM9T5MUrSvjTf32-5">
          <mxGeometry width="50" height="50" relative="1" as="geometry">
            <mxPoint x="190" y="130" as="sourcePoint" />
            <mxPoint x="320" y="200" as="targetPoint" />
          </mxGeometry>
        </mxCell>
        <mxCell id="v6lO75dIVANxk5lYDWVY-12" value="&lt;span style=&quot;color: rgb(0 , 0 , 0) ; font-family: &amp;#34;helvetica&amp;#34; ; font-size: 12px ; font-style: normal ; font-weight: 400 ; letter-spacing: normal ; text-align: center ; text-indent: 0px ; text-transform: none ; word-spacing: 0px ; background-color: rgb(248 , 249 , 250) ; display: inline ; float: none&quot;&gt;LanguageSelector&lt;/span&gt;" style="rounded=1;whiteSpace=wrap;html=1;" vertex="1" parent="1">
          <mxGeometry x="470" y="310" width="120" height="60" as="geometry" />
        </mxCell>
        <mxCell id="v6lO75dIVANxk5lYDWVY-13" value="&lt;font face=&quot;helvetica&quot;&gt;ApiSelector&lt;/font&gt;" style="rounded=1;whiteSpace=wrap;html=1;" vertex="1" parent="1">
          <mxGeometry x="300" y="310" width="120" height="60" as="geometry" />
        </mxCell>
        <mxCell id="Omj2E_ZTX2SUpEohmZNP-1" value="update language state" style="rounded=1;whiteSpace=wrap;html=1;" vertex="1" parent="1">
          <mxGeometry x="530" y="360" width="120" height="60" as="geometry" />
        </mxCell>
        <mxCell id="HXFbTqJXcmXf0OJaDm2r-4" value="CryptoValue&lt;br&gt;( &quot;/crypto-value&quot;)" style="rounded=1;whiteSpace=wrap;html=1;" vertex="1" parent="1">
          <mxGeometry x="120" y="280" width="100" height="50" as="geometry" />
        </mxCell>
        <mxCell id="HXFbTqJXcmXf0OJaDm2r-5" value="FiatExchange&lt;br&gt;(&quot;/fiat-exchange&quot;)" style="rounded=1;whiteSpace=wrap;html=1;" vertex="1" parent="1">
          <mxGeometry y="280" width="100" height="50" as="geometry" />
        </mxCell>
        <mxCell id="505_I2avyeoRudc2l3As-8" style="edgeStyle=orthogonalEdgeStyle;rounded=0;jumpStyle=sharp;orthogonalLoop=1;jettySize=auto;html=1;strokeColor=default;" edge="1" parent="1" source="HXFbTqJXcmXf0OJaDm2r-6" target="505_I2avyeoRudc2l3As-6">
          <mxGeometry relative="1" as="geometry" />
        </mxCell>
        <mxCell id="HXFbTqJXcmXf0OJaDm2r-6" value="PostCode&lt;br&gt;(&quot;/post-code&quot;)" style="rounded=1;whiteSpace=wrap;html=1;" vertex="1" parent="1">
          <mxGeometry x="-120" y="280" width="100" height="50" as="geometry" />
        </mxCell>
        <mxCell id="505_I2avyeoRudc2l3As-7" style="edgeStyle=orthogonalEdgeStyle;rounded=0;jumpStyle=sharp;orthogonalLoop=1;jettySize=auto;html=1;entryX=0.5;entryY=0;entryDx=0;entryDy=0;strokeColor=default;" edge="1" parent="1" source="HXFbTqJXcmXf0OJaDm2r-7" target="505_I2avyeoRudc2l3As-5">
          <mxGeometry relative="1" as="geometry" />
        </mxCell>
        <mxCell id="HXFbTqJXcmXf0OJaDm2r-7" value="CarPlate&lt;br&gt;(&quot;/&quot;)" style="rounded=1;whiteSpace=wrap;html=1;" vertex="1" parent="1">
          <mxGeometry x="-240" y="280" width="100" height="50" as="geometry" />
        </mxCell>
        <mxCell id="HXFbTqJXcmXf0OJaDm2r-14" value="State" style="rounded=1;whiteSpace=wrap;html=1;" vertex="1" parent="1">
          <mxGeometry x="200" y="30" width="120" height="60" as="geometry" />
        </mxCell>
        <mxCell id="505_I2avyeoRudc2l3As-1" value="languageSelector" style="rounded=0;whiteSpace=wrap;html=1;" vertex="1" parent="1">
          <mxGeometry x="-370" y="530" width="120" height="60" as="geometry" />
        </mxCell>
        <mxCell id="505_I2avyeoRudc2l3As-2" value="build api requests" style="rounded=0;whiteSpace=wrap;html=1;" vertex="1" parent="1">
          <mxGeometry x="-390" y="480" width="120" height="60" as="geometry" />
        </mxCell>
        <mxCell id="505_I2avyeoRudc2l3As-4" value="style" style="rounded=0;whiteSpace=wrap;html=1;" vertex="1" parent="1">
          <mxGeometry x="-390" y="580" width="120" height="60" as="geometry" />
        </mxCell>
        <mxCell id="505_I2avyeoRudc2l3As-5" value="Form" style="rounded=1;whiteSpace=wrap;html=1;" vertex="1" parent="1">
          <mxGeometry x="-240" y="365" width="100" height="50" as="geometry" />
        </mxCell>
        <mxCell id="505_I2avyeoRudc2l3As-6" value="Form" style="rounded=1;whiteSpace=wrap;html=1;" vertex="1" parent="1">
          <mxGeometry x="-120" y="365" width="100" height="50" as="geometry" />
        </mxCell>
      </root>
    </mxGraphModel>
  </diagram>
  <diagram id="zptgKMlvMRKnHHz5a3Zu" name="layout">
    <mxGraphModel dx="1186" dy="623" grid="1" gridSize="10" guides="1" tooltips="1" connect="1" arrows="1" fold="1" page="1" pageScale="1" pageWidth="850" pageHeight="1100" math="0" shadow="0">
      <root>
        <mxCell id="KJFZtfqRHKzlZKolZv7i-0" />
        <mxCell id="KJFZtfqRHKzlZKolZv7i-1" parent="KJFZtfqRHKzlZKolZv7i-0" />
        <mxCell id="nAVw3Unsdqvs0jE8XX13-1" value="" style="rounded=0;whiteSpace=wrap;html=1;" vertex="1" parent="KJFZtfqRHKzlZKolZv7i-1">
          <mxGeometry x="30" y="40" width="790" height="490" as="geometry" />
        </mxCell>
        <mxCell id="nAVw3Unsdqvs0jE8XX13-2" value="" style="rounded=0;whiteSpace=wrap;html=1;" vertex="1" parent="KJFZtfqRHKzlZKolZv7i-1">
          <mxGeometry x="30" y="40" width="790" height="100" as="geometry" />
        </mxCell>
        <mxCell id="nAVw3Unsdqvs0jE8XX13-3" value="API ( i logo )" style="rounded=0;whiteSpace=wrap;html=1;" vertex="1" parent="KJFZtfqRHKzlZKolZv7i-1">
          <mxGeometry x="70" y="60" width="120" height="60" as="geometry" />
        </mxCell>
        <mxCell id="nAVw3Unsdqvs0jE8XX13-4" value="Language Selector&lt;br&gt;eng, fr, pt" style="rounded=0;whiteSpace=wrap;html=1;" vertex="1" parent="KJFZtfqRHKzlZKolZv7i-1">
          <mxGeometry x="670" y="60" width="120" height="60" as="geometry" />
        </mxCell>
        <mxCell id="nAVw3Unsdqvs0jE8XX13-5" value="TopNav, collapses, shows on hover" style="rounded=0;whiteSpace=wrap;html=1;" vertex="1" parent="KJFZtfqRHKzlZKolZv7i-1">
          <mxGeometry x="365" y="140" width="120" height="30" as="geometry" />
        </mxCell>
        <mxCell id="nAVw3Unsdqvs0jE8XX13-6" value="Plate" style="rounded=0;whiteSpace=wrap;html=1;" vertex="1" parent="KJFZtfqRHKzlZKolZv7i-1">
          <mxGeometry x="230" y="70" width="90" height="40" as="geometry" />
        </mxCell>
        <mxCell id="nAVw3Unsdqvs0jE8XX13-7" value="CEP" style="rounded=0;whiteSpace=wrap;html=1;" vertex="1" parent="KJFZtfqRHKzlZKolZv7i-1">
          <mxGeometry x="330" y="70" width="90" height="40" as="geometry" />
        </mxCell>
        <mxCell id="nAVw3Unsdqvs0jE8XX13-8" value="Exchange fiat" style="rounded=0;whiteSpace=wrap;html=1;" vertex="1" parent="KJFZtfqRHKzlZKolZv7i-1">
          <mxGeometry x="440" y="70" width="90" height="40" as="geometry" />
        </mxCell>
        <mxCell id="nAVw3Unsdqvs0jE8XX13-10" value="value crypto" style="rounded=0;whiteSpace=wrap;html=1;" vertex="1" parent="KJFZtfqRHKzlZKolZv7i-1">
          <mxGeometry x="540" y="70" width="90" height="40" as="geometry" />
        </mxCell>
        <mxCell id="SVAmdgBRTfsxsD7MYq97-0" value="" style="rounded=0;whiteSpace=wrap;html=1;" vertex="1" parent="KJFZtfqRHKzlZKolZv7i-1">
          <mxGeometry x="170" y="220" width="510" height="90" as="geometry" />
        </mxCell>
        <mxCell id="SVAmdgBRTfsxsD7MYq97-1" value="SearchBar" style="rounded=1;whiteSpace=wrap;html=1;" vertex="1" parent="KJFZtfqRHKzlZKolZv7i-1">
          <mxGeometry x="180" y="260" width="370" height="37.5" as="geometry" />
        </mxCell>
        <mxCell id="SVAmdgBRTfsxsD7MYq97-2" value="Submit" style="rounded=1;whiteSpace=wrap;html=1;" vertex="1" parent="KJFZtfqRHKzlZKolZv7i-1">
          <mxGeometry x="560" y="260" width="110" height="37.5" as="geometry" />
        </mxCell>
        <mxCell id="SVAmdgBRTfsxsD7MYq97-4" value="Label" style="text;html=1;strokeColor=none;fillColor=none;align=center;verticalAlign=middle;whiteSpace=wrap;rounded=0;" vertex="1" parent="KJFZtfqRHKzlZKolZv7i-1">
          <mxGeometry x="180" y="230" width="60" height="30" as="geometry" />
        </mxCell>
      </root>
    </mxGraphModel>
  </diagram>
</mxfile>
